<?xml version="1.0" encoding="utf-8"?>
<!-- Generator: Adobe Illustrator 17.1.0, SVG Export Plug-In . SVG Version: 6.00 Build 0)  -->
<!DOCTYPE svg PUBLIC "-//W3C//DTD SVG 1.1//EN" "http://www.w3.org/Graphics/SVG/1.1/DTD/svg11.dtd">
<svg version="1.1" id="Layer_1" xmlns:svgjs="http://svgjs.com/svgjs"
	 xmlns="http://www.w3.org/2000/svg" xmlns:xlink="http://www.w3.org/1999/xlink" x="0px" y="0px" viewBox="0 0 254.9 180.9"
	 enable-background="new 0 0 254.9 180.9" xml:space="preserve">
<g id="SvgjsG1008" transform="translate(69.08220367431642,0.00047149658203125) scale(1.2)" xmlns:name="symbol_mainfill">
	<g id="XMLID_1_">
		<g>
			<path fill="#FD7400" d="M145.4,119.9c6.9,0,9.4,4.8,9.4,11.6c0,6.9-2.8,11.7-9.4,11.7c-1.8,0-3.6-0.5-4.8-1.7v7.1
				c0,1.6-1.4,2.1-2.9,2.1c-1.4,0-2.9-0.4-2.9-2.1v-26.5c0-1.6,1.2-2.2,2.6-2.2c1.3,0,2.5,0.3,2.8,1.9
				C141.3,120.7,143.4,119.9,145.4,119.9z M148.7,131.6c0-3.2-0.4-7.2-3.9-7.2c-2.9,0-4.3,3.3-4.3,6v1.9c0,2.8,1.2,6.4,4.3,6.4
				C148.3,138.8,148.7,134.8,148.7,131.6z"/>
			<path fill="#FD7400" d="M129.4,120.3c1.8,0.2,2.4,1,1.7,3l-7.9,22.3c-1.4,3.9-4.3,5.2-8.2,4.5c-1.3-0.2-1.8-1.2-1.8-2.7
				c0-1.6,0.6-2.6,2.4-2.4c1.3,0.2,2.6-0.6,3-1.8l0.6-1.9l-6.9-17.9c-0.7-2,0-2.9,1.8-3.1c1.5-0.2,3-0.1,3.5,1.2l4.3,11.8l4-11.8
				C126.4,120.1,127.9,120.1,129.4,120.3z"/>
			<path fill="#FD7400" d="M110.8,122.8c0,1.2-0.4,2.3-2.1,2.3h-3.3v16c0,1.6-1.5,2.1-2.9,2.1c-1.5,0-2.9-0.4-2.9-2.1v-16h-3.3
				c-1.6,0-2.1-1.2-2.1-2.3s0.4-2.3,2.1-2.3h12.4C110.3,120.5,110.8,121.6,110.8,122.8z"/>
			<path fill="#FD7400" d="M97.2,62.8v11.4L54.1,60v23.1L64,91v9l-15.4-4.7L33.2,100v-9l9.9-7.8V60L0,74.2V62.8l42.7-26.1V5.5
				c0-7.4,11.1-7.4,11.1,0.2v31L97.2,62.8z"/>
			<path fill="#FD7400" d="M74.2,130.9c1.9,1.1,2.8,3.1,2.8,5.2c0,4.8-4.3,7.3-8.5,7.3c-3.5,0-7.2-1.5-8.2-5.3
				c-0.4-1.5,0-2.8,2.2-2.9c1.1-0.1,2.2,0,2.8,1.7c0.6,1.4,1.6,2.1,3,2.1c1.8,0,3.3-0.9,3.3-2.9c0-2-1.8-2.7-3.5-2.7
				c-1.7,0-2.2-0.7-2.2-2.1c0-2.1,1.1-2.3,2.3-2.3c1.8,0,2.8-0.9,2.8-2.4c0-1.6-1.3-2.1-2.7-2.1c-1.7,0-2.6,0.6-3.2,2.2
				c-0.3,0.8-1.7,1.1-2.7,1c-1.3-0.2-2.3-0.8-1.9-2.1c1-4,4.5-5.5,8.2-5.5c3.9,0,7.8,2,7.8,6.4C76.5,128.1,75.7,129.7,74.2,130.9z"
				/>
			<path fill="#FD7400" d="M56.3,122.1v19c0,1.6-1.5,2.1-2.9,2.1c-1.5,0-2.9-0.4-2.9-2.1v-11.3c-0.4,0.9-0.9,1.7-1.4,2.4l-6.5,10
				c-0.5,0.8-1.6,0.9-2.5,0.9c-1.4,0-2.8-0.4-2.8-2.1v-19c0-1.6,1.5-2.1,2.9-2.1c1.5,0,2.9,0.4,2.9,2.1v11.3
				c0.4-0.9,0.9-1.7,1.4-2.4l6.5-10c0.5-0.8,1.6-0.9,2.4-0.9C55,120.1,56.3,120.5,56.3,122.1z"/>
			<path fill="#FD7400" d="M23.7,119.9c6.9,0,9.4,4.8,9.4,11.6c0,6.9-2.8,11.7-9.4,11.7c-1.8,0-3.6-0.5-4.8-1.7v7.1
				c0,1.6-1.4,2.1-2.9,2.1c-1.4,0-2.9-0.4-2.9-2.1v-26.5c0-1.6,1.2-2.2,2.6-2.2c1.2,0,2.5,0.3,2.8,1.9
				C19.7,120.7,21.8,119.9,23.7,119.9z M27.1,131.6c0-3.2-0.4-7.2-4-7.2c-2.9,0-4.3,3.3-4.3,6v1.9c0,2.8,1.2,6.4,4.3,6.4
				C26.7,138.8,27.1,134.8,27.1,131.6z"/>
			<path fill="#FD7400" d="M7.6,124.6v16.4c0,1.6-1.4,2.1-2.9,2.1c-1.4,0-2.9-0.4-2.9-2.1V126c0-0.5-0.2-0.9-0.8-0.9h-5.3
				c-0.6,0-0.7,0.3-0.7,0.9v15.1c0,1.6-1.5,2.1-2.9,2.1c-1.2,0-2.9-0.4-2.9-2.1v-16.4c0-2.4,1.2-4.2,3.9-4.2H3.8
				C6.8,120.5,7.6,122.3,7.6,124.6z"/>
			<path fill="#FD7400" d="M-15.9,140.9c0.1,1.5-0.8,1.9-2.2,2c-1.5,0-2.2-0.5-2.9-1.9c-1.5,1.2-3.3,2.2-6.4,2.2
				c-3.9,0-7.4-2.6-7.4-7c0-7.4,7.3-8.2,12.9-7.8c0-3-1.6-3.8-3.4-3.8c-2.4,0-3.3,0.4-5.3,1.3c-1,0.4-1.9,0.5-2.7-0.5
				c-0.8-1-0.9-2.7,0.4-3.4c2.5-1.5,4.9-2,7.7-2c4.9,0,9.1,2.2,9.1,8.2v9.9C-16.1,138.9-16,139.8-15.9,140.9z M-26,138.6
				c3,0,4.5-2.8,4.1-6c-2.4-0.2-7.3-0.2-7.1,3.6C-28.9,137.6-27.8,138.6-26,138.6z"/>
			<path fill="#FD7400" d="M-37.3,140.4c1,2-0.3,2.6-2.5,2.6c-1.9,0-2.5-0.6-3.1-1.7c-1.4-2.9-1.9-6.1-2.9-9c-1-2.9-3.2-3.6-6-3.4
				v12.2c0,1.6-1.5,2-2.9,2s-2.8-0.4-2.8-2v-26.6c0-1.6,1.4-2,2.8-2s2.9,0.4,2.9,2v9.5c2.2,0,3.8-0.9,4.9-2.8
				c1.1-1.9,2.4-5.1,3.3-6.5c1.1-1.6,1.6-2.2,3.8-2.2s3.3,0.8,2.2,2.5c-1,1.5-2.2,4.3-3.8,7.1c-0.9,1.5-1.9,3.1-3.6,3.9
				c2.2,0.6,3.6,2.8,4.4,4.7C-39.2,134-38.3,138.3-37.3,140.4z"/>
		</g>
		<g>
		</g>
	</g>
</g>
</svg>
