<?xml version="1.0" encoding="utf-8"?>
<!-- Generator: Adobe Illustrator 17.1.0, SVG Export Plug-In . SVG Version: 6.00 Build 0)  -->
<!DOCTYPE svg PUBLIC "-//W3C//DTD SVG 1.1//EN" "http://www.w3.org/Graphics/SVG/1.1/DTD/svg11.dtd">
<svg version="1.1" id="Layer_1" xmlns:svgjs="http://svgjs.com/svgjs"
	 xmlns="http://www.w3.org/2000/svg" xmlns:xlink="http://www.w3.org/1999/xlink" x="0px" y="0px" viewBox="0 400 933 270"
	 enable-background="new 0 400 933 270" xml:space="preserve">
<g>
	<g id="XMLID_1_">
		<g>
			<path fill="#FFFFFF" d="M306.4,607c10.4,0,14.2,7.2,14.2,17.5c0,10.4-4.3,17.7-14.2,17.7c-2.7,0-5.5-0.7-7.2-2.6v10.7
				c0,2.4-2.1,3.2-4.4,3.2c-2.1,0-4.4-0.6-4.4-3.2v-40c0-2.4,1.8-3.3,3.9-3.3c2,0,3.8,0.5,4.2,2.9C300.2,608.2,303.4,607,306.4,607z
				 M311.4,624.6c0-4.8-0.6-10.8-5.9-10.8c-4.4,0-6.5,5-6.5,9.1v2.9c0,4.3,1.8,9.7,6.5,9.7C310.8,635.5,311.4,629.5,311.4,624.6z"/>
			<path fill="#FFFFFF" d="M282.3,607.6c2.7,0.3,3.6,1.5,2.6,4.5l-11.9,33.7c-2.1,5.9-6.5,7.9-12.4,6.8c-1.9-0.3-2.7-1.8-2.7-4.1
				c0-2.4,0.9-3.9,3.6-3.6c2,0.3,3.9-0.9,4.5-2.7l0.9-2.9l-10.4-27c-1.1-3,0-4.4,2.7-4.7c2.3-0.3,4.5-0.2,5.3,1.8l6.5,17.8l6-17.8
				C277.7,607.3,280,607.3,282.3,607.6z"/>
			<path fill="#FFFFFF" d="M254.2,611.3c0,1.8-0.6,3.5-3.1,3.5h-5V639c0,2.4-2.3,3.1-4.4,3.1c-2.3,0-4.4-0.6-4.4-3.1v-24.2h-5
				c-2.4,0-3.2-1.8-3.2-3.5c0-1.7,0.6-3.5,3.2-3.5H251C253.4,607.9,254.2,609.5,254.2,611.3z"/>
			<path fill="#FFFFFF" d="M233.6,520.8V538l-65.1-21.4v34.9l14.9,11.9V577l-23.3-7.1L137,577v-13.6l14.9-11.8v-35L86.9,538v-17.2
				l64.5-39.4v-47.1c0-11.2,16.8-11.2,16.8,0.3v46.8L233.6,520.8z"/>
			<path fill="#FFFFFF" d="M202.4,616.9c0.1,2.5-1.1,4.9-3.5,6.7c2.9,1.7,4.2,4.7,4.2,7.9c0,7.2-6.5,11-12.8,11
				c-5.3,0-10.8-2.3-12.4-8c-0.6-2.3,0-4.2,3.3-4.4c1.7-0.2,3.3,0,4.3,2.6c0.9,2.1,2.4,3.1,4.5,3.1c2.7,0,5-1.4,5-4.3
				c0-3-2.7-4.1-5.3-4.1c-2.6,0-3.3-1-3.3-3.2c0-3.1,1.7-3.5,3.5-3.5c2.7,0,4.2-1.4,4.2-3.6c0-2.4-1.9-3.2-4.1-3.2
				c-2.6,0-3.9,0.9-4.8,3.3c-0.5,1.2-2.6,1.7-4.1,1.5c-1.9-0.3-3.4-1.2-2.9-3.1c1.5-6,6.8-8.3,12.4-8.3
				C196.4,607.3,202.4,610.3,202.4,616.9z"/>
			<path fill="#FFFFFF" d="M171.9,610.3V639c0,2.4-2.3,3.1-4.4,3.1c-2.3,0-4.4-0.6-4.4-3.1v-17c-0.6,1.4-1.4,2.6-2.1,3.6l-9.8,15.1
				c-0.7,1.2-2.4,1.4-3.8,1.4c-2.1,0-4.3-0.6-4.3-3.1v-28.7c0-2.4,2.3-3.1,4.4-3.1c2.3,0,4.4,0.6,4.4,3.1v17.1
				c0.6-1.4,1.4-2.6,2.1-3.6l9.8-15.1c0.7-1.2,2.4-1.4,3.6-1.4C169.9,607.3,171.9,607.9,171.9,610.3z"/>
			<path fill="#FFFFFF" d="M122.7,607c10.4,0,14.2,7.2,14.2,17.5c0,10.4-4.2,17.7-14.2,17.7c-2.7,0-5.5-0.7-7.2-2.6v10.7
				c0,2.4-2.1,3.2-4.4,3.2c-2.1,0-4.4-0.6-4.4-3.2v-40c0-2.4,1.8-3.3,3.9-3.3c1.8,0,3.8,0.5,4.2,2.9
				C116.6,608.2,119.8,607,122.7,607z M127.8,624.6c0-4.8-0.6-10.8-6-10.8c-4.4,0-6.5,5-6.5,9.1v2.9c0,4.3,1.8,9.7,6.5,9.7
				C127.2,635.5,127.8,629.5,127.8,624.6z"/>
			<path fill="#FFFFFF" d="M98.4,614.1v24.8c0,2.4-2.1,3.1-4.4,3.1c-2.1,0-4.3-0.6-4.3-3.1v-22.6c0-0.7-0.3-1.4-1.2-1.4h-8
				c-0.9,0-1.1,0.5-1.1,1.4V639c0,2.4-2.3,3.1-4.4,3.1c-1.8,0-4.4-0.6-4.4-3.1v-24.8c0-3.6,1.8-6.3,5.9-6.3h16.1
				C97.1,607.9,98.4,610.6,98.4,614.1z"/>
			<path fill="#FFFFFF" d="M62.9,638.7c0.2,2.3-1.2,2.9-3.3,3c-2.3,0-3.3-0.7-4.4-2.9c-2.3,1.8-5,3.3-9.6,3.3
				c-5.9,0-11.2-3.9-11.2-10.6c0-11.2,11-12.4,19.5-11.8c0-4.5-2.4-5.8-5.1-5.8c-3.6,0-5,0.6-8,2c-1.5,0.6-2.9,0.7-4.1-0.7
				c-1.2-1.5-1.4-4.1,0.6-5.1c3.8-2.3,7.4-3,11.6-3c7.4,0,13.7,3.3,13.7,12.4v14.9C62.6,635.7,62.8,637,62.9,638.7z M47.6,635.2
				c4.6,0,6.8-4.3,6.2-9.1c-3.6-0.3-11-0.3-10.7,5.5C43.3,633.7,45,635.2,47.6,635.2z"/>
			<path fill="#FFFFFF" d="M30.6,637.9c1.5,3-0.5,3.9-3.8,3.9c-2.9,0-3.8-0.9-4.7-2.6c-2.1-4.4-2.9-9.2-4.3-13.6
				c-1.5-4.4-4.8-5.5-9.1-5.1V639c0,2.4-2.3,3-4.4,3c-2.1,0-4.3-0.6-4.3-3v-40.1c0-2.4,2.1-3,4.3-3c2.1,0,4.4,0.6,4.4,3v14.4
				c3.3,0,5.7-1.4,7.4-4.3c1.7-2.9,3.6-7.7,5-9.8c1.7-2.4,2.4-3.3,5.7-3.3s5,1.2,3.3,3.8c-1.5,2.3-3.3,6.5-5.7,10.7
				c-1.4,2.3-2.9,4.7-5.5,5.9c3.3,0.9,5.5,4.2,6.7,7.1C27.7,628.3,29.1,634.8,30.6,637.9z"/>
		</g>
		<g>
		</g>
	</g>
</g>
<rect x="356.3" y="630.4" fill="none" width="250.5" height="23.1"/>
<text transform="matrix(1 0 0 1 356.6015 646.4834)" fill="#D8D8D8" font-family="'MyriadPro-Regular'" font-size="50">Туристическое</text>
<text transform="matrix(1 0 0 1 502.9988 646.4834)" fill="#D8D8D8" font-family="'Castellar'" font-size="22.5308"> </text>
<text transform="matrix(1 0 0 1 702.5681 646.4828)" fill="#D8D8D8" font-family="'MyriadPro-Regular'" font-size="50">агентство</text>
</svg>
